<?xml version="1.0" encoding="UTF-8" standalone="no"?>
<svg
   width="42"
   height="42"
   viewBox="0 0 15.75 15.75"
   fill="none"
   version="1.1"
   id="svg1"
   xmlns="http://www.w3.org/2000/svg"
   xmlns:svg="http://www.w3.org/2000/svg">
  <defs
     id="defs1" />
  <g
     id="SVGRepo_iconCarrier"
     style="fill:#ffffff;fill-opacity:1"
     transform="matrix(0.98440352,0,0,0.99046498,-3.9382128,-4.1088229)">
    <path
       d="M 20,12.05 C 19.9813,10.5255 19.5273,9.03809 18.6915,7.76295 17.8557,6.48781 16.673,5.47804 15.2826,4.85257 13.8921,4.2271 12.3519,4.01198 10.8433,4.23253 9.33473,4.45309 7.92057,5.10013 6.7674,6.09748 5.61422,7.09482 4.77005,8.40092 4.3343,9.86195 3.89856,11.323 3.88938,12.8781 4.30786,14.3442 4.72634,15.8103 5.55504,17.1262 6.69637,18.1371 7.83769,19.148 9.24412,19.8117 10.75,20.05 V 14.38 H 8.75001 V 12.05 H 10.75 V 10.28 C 10.7037,9.86846 10.7483,9.45175 10.8807,9.05931 11.0131,8.66687 11.23,8.30827 11.5161,8.00882 11.8022,7.70936 12.1505,7.47635 12.5365,7.32624 12.9225,7.17612 13.3368,7.11255 13.75,7.14003 c 0.5998,0.00821 1.1982,0.0617 1.79,0.16 v 2 h -1 C 14.3676,9.27828 14.1924,9.29556 14.0276,9.35059 13.8627,9.40562 13.7123,9.49699 13.5875,9.61795 13.4627,9.73891 13.3667,9.88637 13.3066,10.0494 13.2464,10.2125 13.2237,10.387 13.24,10.56 v 1.51 h 2.22 L 15.1,14.4 H 13.25 V 20 c 1.8899,-0.2989 3.6101,-1.2653 4.8485,-2.7239 C 19.3369,15.8175 20.0115,13.9634 20,12.05 Z"
       fill="#fff"
       id="path1"
       style="fill:#ffffff;fill-opacity:1" />
  </g>
</svg>
