<?xml version="1.0" encoding="UTF-8" standalone="no"?>
<svg
   width="42"
   height="42"
   viewBox="0 0 15.75 15.75"
   fill="none"
   version="1.1"
   id="svg1"
   xmlns="http://www.w3.org/2000/svg"
   xmlns:svg="http://www.w3.org/2000/svg">
  <defs
     id="defs1" />
  <path
     d="M 7.875732,6.3522955 A 1.522522,1.522522 0 1 0 9.397705,7.8742685 1.522522,1.522522 0 0 0 7.875732,6.3522955 Z"
     style="fill:#ffffff;fill-opacity:1;stroke-width:0.997991;stroke-linejoin:bevel"
     id="path21" />
  <path
     d="m 7.875732,4.1301277 c -1.219297,0 -1.364378,0.0059 -1.845703,0.02783 A 2.5262723,2.5262723 0 0 0 5.181885,4.3146957 1.5124753,1.5124753 0 0 0 4.314697,5.1818827 2.5262723,2.5262723 0 0 0 4.157959,6.0300275 c -0.02187,0.481325 -0.02783,0.624941 -0.02783,1.844239 0,1.219296 0.0059,1.364379 0.02783,1.845703 a 2.5262723,2.5262723 0 0 0 0.156738,0.8481435 1.5124753,1.5124753 0 0 0 0.867188,0.866455 2.5262723,2.5262723 0 0 0 0.848144,0.157471 c 0.481325,0.0221 0.626405,0.0271 1.845703,0.0271 1.219295,0 1.362913,-0.005 1.844239,-0.02783 a 2.5262723,2.5262723 0 0 0 0.848144,-0.156739 1.5124753,1.5124753 0 0 0 0.867188,-0.86792 2.5262723,2.5262723 0 0 0 0.156738,-0.8466785 c 0.0221,-0.481324 0.0271,-0.626407 0.0271,-1.845703 0,-1.219297 -0.005,-1.362913 -0.02783,-1.844239 A 2.5262723,2.5262723 0 0 0 11.435303,5.1811507 1.5124753,1.5124753 0 0 0 10.568115,4.3146957 2.5262723,2.5262723 0 0 0 9.719971,4.1579577 c -0.481325,-0.02191 -0.624943,-0.02783 -1.844239,-0.02783 z m 2.4375,0.759521 a 0.54799834,0.54799834 0 0 1 0.54712,0.547119 0.54799834,0.54799834 0 0 1 -0.54712,0.5485848 0.5480872,0.5480872 0 1 1 0,-1.0957038 z M 7.769531,5.5319827 A 2.3454328,2.3454328 0 0 1 10.220215,7.8742685 2.3454328,2.3454328 0 0 1 7.875732,10.220215 2.3454328,2.3454328 0 0 1 7.150635,5.6447757 2.3454328,2.3454328 0 0 1 7.769531,5.5319827 Z"
     style="fill:#ffffff;fill-opacity:1;stroke-width:0.997991;stroke-linejoin:bevel"
     id="path18" />
  <path
     d="M 7.875,2.7683716e-7 A 7.875,7.875 0 0 0 0,7.8750005 7.875,7.875 0 0 0 7.875,15.75 7.875,7.875 0 0 0 15.75,7.8750005 7.875,7.875 0 0 0 7.875,2.7683716e-7 Z M 7.875732,3.3083499 c 1.240303,-4e-7 1.39534,0.00518 1.883057,0.0271 a 3.3519232,3.3519232 0 0 1 1.107422,0.2116699 2.334473,2.334473 0 0 1 1.335205,1.3366699 3.3519232,3.3519232 0 0 1 0.213135,1.1074218 c 0.0221,0.487717 0.0271,0.642754 0.0271,1.883057 0,1.240303 -0.0052,1.39607 -0.0271,1.883789 a 3.3519232,3.3519232 0 0 1 -0.213135,1.1081535 2.334473,2.334473 0 0 1 -1.335205,1.335205 3.3519232,3.3519232 0 0 1 -1.107422,0.212402 c -0.487717,0.0219 -0.642754,0.02783 -1.883057,0.02783 -1.240304,0 -1.396804,-0.0059 -1.884521,-0.02783 A 3.3519232,3.3519232 0 0 1 4.883789,12.201416 2.334473,2.334473 0 0 1 3.548584,10.866211 3.3519232,3.3519232 0 0 1 3.336182,9.7580575 c -0.02187,-0.487719 -0.02783,-0.643486 -0.02783,-1.883789 0,-1.240303 0.0059,-1.39534 0.02783,-1.883057 A 3.3519232,3.3519232 0 0 1 3.547119,4.8837897 2.334473,2.334473 0 0 1 4.883789,3.5471194 3.3519232,3.3519232 0 0 1 5.991211,3.3354495 c 0.487717,-0.021924 0.644217,-0.0271 1.884521,-0.0271 z"
     style="fill:#ffffff;fill-opacity:1;stroke-width:0.997991;stroke-linejoin:bevel"
     id="path16" />
</svg>
